<svg width="147" height="32" viewBox="0 0 147 32" fill="none" xmlns="http://www.w3.org/2000/svg">
<g filter="url(#filter0_d_410_1323)">
<mask id="path-1-outside-1_410_1323" maskUnits="userSpaceOnUse" x="0" y="3" width="148" height="30" fill="black">
<rect fill="white" y="3" width="148" height="30"/>
<path d="M6.72 26.112V21.24H10.08C10.9573 21.24 11.7413 21.1187 12.432 20.876C13.1413 20.6147 13.7387 20.2507 14.224 19.784C14.7093 19.2987 15.0827 18.72 15.344 18.048C15.6053 17.3573 15.736 16.5827 15.736 15.724C15.736 14.828 15.6053 14.044 15.344 13.372C15.0827 12.6813 14.7093 12.112 14.224 11.664C13.7387 11.1973 13.1413 10.852 12.432 10.628C11.7413 10.3853 10.9573 10.264 10.08 10.264H6.72V5.392H9.856C11.704 5.392 13.3187 5.65333 14.7 6.176C16.1 6.69867 17.2667 7.42667 18.2 8.36C19.1333 9.27467 19.8333 10.3387 20.3 11.552C20.7667 12.7653 21 14.0533 21 15.416V16.032C21 17.2827 20.7667 18.5147 20.3 19.728C19.8333 20.9227 19.1333 22.0053 18.2 22.976C17.2667 23.928 16.1 24.6933 14.7 25.272C13.3187 25.832 11.704 26.112 9.856 26.112H6.72ZM2.072 26.112V5.392H7.28V26.112H2.072ZM30.333 26.56C29.0263 26.56 27.869 26.336 26.861 25.888C25.853 25.44 25.0036 24.8333 24.313 24.068C23.6223 23.3027 23.0903 22.444 22.717 21.492C22.3623 20.54 22.185 19.56 22.185 18.552V17.992C22.185 16.9467 22.3623 15.948 22.717 14.996C23.0903 14.0253 23.613 13.1667 24.285 12.42C24.9756 11.6733 25.8156 11.0853 26.805 10.656C27.7943 10.208 28.9143 9.984 30.165 9.984C31.8263 9.984 33.2356 10.3573 34.393 11.104C35.5503 11.8507 36.437 12.84 37.053 14.072C37.669 15.2853 37.977 16.6107 37.977 18.048V19.672H24.313V16.928H35.037L33.273 18.16C33.273 17.2827 33.1516 16.5453 32.909 15.948C32.685 15.332 32.3396 14.8653 31.873 14.548C31.425 14.2307 30.8556 14.072 30.165 14.072C29.493 14.072 28.905 14.2307 28.401 14.548C27.9156 14.8467 27.5423 15.3133 27.281 15.948C27.0196 16.564 26.889 17.348 26.889 18.3C26.889 19.1587 27.0103 19.9053 27.253 20.54C27.4956 21.156 27.869 21.632 28.373 21.968C28.877 22.304 29.5303 22.472 30.333 22.472C31.0423 22.472 31.621 22.3507 32.069 22.108C32.5356 21.8653 32.8623 21.5387 33.049 21.128H37.697C37.473 22.1733 37.025 23.1067 36.353 23.928C35.6996 24.7493 34.8596 25.3933 33.833 25.86C32.825 26.3267 31.6583 26.56 30.333 26.56ZM42.8509 26L38.4269 10.544H43.6349L47.7509 26H42.8509ZM44.4749 26V21.744H49.4309V26H44.4749ZM46.2669 26L49.7669 10.544H54.6389L50.8309 26H46.2669ZM63.3106 26.56C62.004 26.56 60.8466 26.336 59.8386 25.888C58.8306 25.44 57.9813 24.8333 57.2906 24.068C56.6 23.3027 56.068 22.444 55.6946 21.492C55.34 20.54 55.1626 19.56 55.1626 18.552V17.992C55.1626 16.9467 55.34 15.948 55.6946 14.996C56.068 14.0253 56.5906 13.1667 57.2626 12.42C57.9533 11.6733 58.7933 11.0853 59.7826 10.656C60.772 10.208 61.892 9.984 63.1426 9.984C64.804 9.984 66.2133 10.3573 67.3706 11.104C68.528 11.8507 69.4146 12.84 70.0306 14.072C70.6466 15.2853 70.9546 16.6107 70.9546 18.048V19.672H57.2906V16.928H68.0146L66.2506 18.16C66.2506 17.2827 66.1293 16.5453 65.8866 15.948C65.6626 15.332 65.3173 14.8653 64.8506 14.548C64.4026 14.2307 63.8333 14.072 63.1426 14.072C62.4706 14.072 61.8826 14.2307 61.3786 14.548C60.8933 14.8467 60.52 15.3133 60.2586 15.948C59.9973 16.564 59.8666 17.348 59.8666 18.3C59.8666 19.1587 59.988 19.9053 60.2306 20.54C60.4733 21.156 60.8466 21.632 61.3506 21.968C61.8546 22.304 62.508 22.472 63.3106 22.472C64.02 22.472 64.5986 22.3507 65.0466 22.108C65.5133 21.8653 65.84 21.5387 66.0266 21.128H70.6746C70.4506 22.1733 70.0026 23.1067 69.3306 23.928C68.6773 24.7493 67.8373 25.3933 66.8106 25.86C65.8026 26.3267 64.636 26.56 63.3106 26.56ZM73.3047 26V5.56H78.4007V26H73.3047ZM71.5687 9.256V5.56H78.4007V9.256H71.5687ZM89.2988 26.56C87.9361 26.56 86.7228 26.3547 85.6588 25.944C84.5948 25.5333 83.6894 24.964 82.9428 24.236C82.2148 23.508 81.6548 22.668 81.2628 21.716C80.8894 20.764 80.7028 19.7467 80.7028 18.664V17.992C80.7028 16.872 80.8988 15.8267 81.2908 14.856C81.7014 13.8853 82.2801 13.036 83.0268 12.308C83.7734 11.58 84.6788 11.0107 85.7428 10.6C86.8068 10.1893 87.9921 9.984 89.2988 9.984C90.6241 9.984 91.8094 10.1893 92.8548 10.6C93.9188 11.0107 94.8241 11.58 95.5708 12.308C96.3174 13.036 96.8868 13.8853 97.2788 14.856C97.6894 15.8267 97.8948 16.872 97.8948 17.992V18.664C97.8948 19.7467 97.6988 20.764 97.3068 21.716C96.9334 22.668 96.3734 23.508 95.6268 24.236C94.8988 24.964 94.0028 25.5333 92.9388 25.944C91.8748 26.3547 90.6614 26.56 89.2988 26.56ZM89.2988 22.304C90.0828 22.304 90.7268 22.136 91.2308 21.8C91.7534 21.464 92.1454 20.9973 92.4068 20.4C92.6681 19.784 92.7988 19.0933 92.7988 18.328C92.7988 17.5253 92.6588 16.8253 92.3788 16.228C92.1174 15.612 91.7254 15.1267 91.2028 14.772C90.6801 14.4173 90.0454 14.24 89.2988 14.24C88.5521 14.24 87.9174 14.4173 87.3948 14.772C86.8721 15.1267 86.4708 15.612 86.1908 16.228C85.9294 16.8253 85.7988 17.5253 85.7988 18.328C85.7988 19.0933 85.9294 19.784 86.1908 20.4C86.4521 20.9973 86.8441 21.464 87.3668 21.8C87.8894 22.136 88.5334 22.304 89.2988 22.304ZM100.125 31.6V10.544H104.157V17.208H103.709C103.765 15.696 104.063 14.408 104.605 13.344C105.165 12.28 105.921 11.4773 106.873 10.936C107.825 10.376 108.917 10.096 110.149 10.096C111.213 10.096 112.174 10.292 113.033 10.684C113.891 11.0573 114.629 11.5987 115.245 12.308C115.861 12.9987 116.327 13.82 116.645 14.772C116.981 15.724 117.149 16.7693 117.149 17.908V18.58C117.149 19.7187 116.999 20.7733 116.701 21.744C116.402 22.696 115.954 23.536 115.357 24.264C114.759 24.9733 114.022 25.524 113.145 25.916C112.286 26.308 111.297 26.504 110.177 26.504C108.982 26.504 107.927 26.2707 107.013 25.804C106.098 25.3187 105.37 24.6 104.829 23.648C104.306 22.6773 104.026 21.464 103.989 20.008L105.221 21.52V31.6H100.125ZM108.637 22.304C109.309 22.304 109.897 22.136 110.401 21.8C110.923 21.4453 111.325 20.96 111.605 20.344C111.903 19.728 112.053 19.028 112.053 18.244C112.053 17.4413 111.903 16.7507 111.605 16.172C111.325 15.5747 110.933 15.1173 110.429 14.8C109.925 14.464 109.327 14.296 108.637 14.296C108.021 14.296 107.442 14.436 106.901 14.716C106.378 14.996 105.949 15.4067 105.613 15.948C105.277 16.4893 105.109 17.1427 105.109 17.908V18.86C105.109 19.588 105.286 20.2133 105.641 20.736C105.995 21.24 106.443 21.632 106.985 21.912C107.526 22.1733 108.077 22.304 108.637 22.304ZM126.641 26.56C125.334 26.56 124.177 26.336 123.169 25.888C122.161 25.44 121.312 24.8333 120.621 24.068C119.93 23.3027 119.398 22.444 119.025 21.492C118.67 20.54 118.493 19.56 118.493 18.552V17.992C118.493 16.9467 118.67 15.948 119.025 14.996C119.398 14.0253 119.921 13.1667 120.593 12.42C121.284 11.6733 122.124 11.0853 123.113 10.656C124.102 10.208 125.222 9.984 126.473 9.984C128.134 9.984 129.544 10.3573 130.701 11.104C131.858 11.8507 132.745 12.84 133.361 14.072C133.977 15.2853 134.285 16.6107 134.285 18.048V19.672H120.621V16.928H131.345L129.581 18.16C129.581 17.2827 129.46 16.5453 129.217 15.948C128.993 15.332 128.648 14.8653 128.181 14.548C127.733 14.2307 127.164 14.072 126.473 14.072C125.801 14.072 125.213 14.2307 124.709 14.548C124.224 14.8467 123.85 15.3133 123.589 15.948C123.328 16.564 123.197 17.348 123.197 18.3C123.197 19.1587 123.318 19.9053 123.561 20.54C123.804 21.156 124.177 21.632 124.681 21.968C125.185 22.304 125.838 22.472 126.641 22.472C127.35 22.472 127.929 22.3507 128.377 22.108C128.844 21.8653 129.17 21.5387 129.357 21.128H134.005C133.781 22.1733 133.333 23.1067 132.661 23.928C132.008 24.7493 131.168 25.3933 130.141 25.86C129.133 26.3267 127.966 26.56 126.641 26.56ZM136.411 26V10.544H140.443V17.264H140.387C140.387 15.0987 140.835 13.4 141.731 12.168C142.646 10.936 143.952 10.32 145.651 10.32H146.267V14.688H145.091C143.952 14.688 143.066 14.996 142.431 15.612C141.815 16.228 141.507 17.1147 141.507 18.272V26H136.411Z"/>
</mask>
<path d="M6.72 26.112H5.32V27.512H6.72V26.112ZM6.72 21.24V19.84H5.32V21.24H6.72ZM12.432 20.876L12.8961 22.1968L12.9061 22.1933L12.916 22.1897L12.432 20.876ZM14.224 19.784L15.1944 20.7932L15.2042 20.7837L15.2139 20.7739L14.224 19.784ZM15.344 18.048L16.6489 18.5554L16.6534 18.5434L15.344 18.048ZM15.344 13.372L14.0345 13.8675L14.0392 13.8794L15.344 13.372ZM14.224 11.664L13.2536 12.6732L13.2639 12.6831L13.2744 12.6927L14.224 11.664ZM12.432 10.628L11.9679 11.9488L11.9891 11.9563L12.0104 11.963L12.432 10.628ZM6.72 10.264H5.32V11.664H6.72V10.264ZM6.72 5.392V3.992H5.32V5.392H6.72ZM14.7 6.176L14.2045 7.48541L14.2103 7.48758L14.7 6.176ZM18.2 8.36L17.21 9.35L17.2201 9.3599L18.2 8.36ZM20.3 11.552L18.9933 12.0546L18.9933 12.0546L20.3 11.552ZM20.3 19.728L21.6041 20.2374L21.6067 20.2306L20.3 19.728ZM18.2 22.976L19.1997 23.9561L19.2092 23.9464L18.2 22.976ZM14.7 25.272L15.226 26.5695L15.2348 26.5658L14.7 25.272ZM2.072 26.112H0.672V27.512H2.072V26.112ZM2.072 5.392V3.992H0.672V5.392H2.072ZM7.28 5.392H8.68V3.992H7.28V5.392ZM7.28 26.112V27.512H8.68V26.112H7.28ZM8.12 26.112V21.24H5.32V26.112H8.12ZM6.72 22.64H10.08V19.84H6.72V22.64ZM10.08 22.64C11.0849 22.64 12.03 22.5011 12.8961 22.1968L11.9679 19.5552C11.4526 19.7362 10.8297 19.84 10.08 19.84V22.64ZM12.916 22.1897C13.7844 21.8697 14.5535 21.4094 15.1944 20.7932L13.2536 18.7748C12.9238 19.092 12.4982 19.3596 11.948 19.5623L12.916 22.1897ZM15.2139 20.7739C15.8435 20.1444 16.3207 19.399 16.6488 18.5554L14.0392 17.5406C13.8446 18.041 13.5752 18.4529 13.2341 18.794L15.2139 20.7739ZM16.6534 18.5434C16.9835 17.671 17.136 16.7248 17.136 15.724H14.336C14.336 16.4405 14.2271 17.0437 14.0346 17.5526L16.6534 18.5434ZM17.136 15.724C17.136 14.6951 16.9863 13.7323 16.6488 12.8646L14.0392 13.8794C14.2244 14.3557 14.336 14.9609 14.336 15.724H17.136ZM16.6534 12.8766C16.3243 12.0069 15.8367 11.2473 15.1736 10.6353L13.2744 12.6927C13.582 12.9767 13.841 13.3558 14.0346 13.8674L16.6534 12.8766ZM15.1944 10.6548C14.5379 10.0236 13.7466 9.575 12.8536 9.29298L12.0104 11.963C12.536 12.129 12.9394 12.371 13.2536 12.6732L15.1944 10.6548ZM12.8961 9.30716C12.03 9.00287 11.0849 8.864 10.08 8.864V11.664C10.8297 11.664 11.4526 11.7678 11.9679 11.9488L12.8961 9.30716ZM10.08 8.864H6.72V11.664H10.08V8.864ZM8.12 10.264V5.392H5.32V10.264H8.12ZM6.72 6.792H9.856V3.992H6.72V6.792ZM9.856 6.792C11.5756 6.792 13.0157 7.03557 14.2046 7.4854L15.1955 4.8666C13.6216 4.27109 11.8324 3.992 9.856 3.992V6.792ZM14.2103 7.48758C15.4473 7.94939 16.4362 8.57605 17.2101 9.34995L19.1899 7.37005C18.0972 6.27728 16.7527 5.44795 15.1897 4.86442L14.2103 7.48758ZM17.2201 9.3599C18.0109 10.1349 18.5991 11.0295 18.9933 12.0546L21.6067 11.0494C21.0676 9.6478 20.2558 8.41445 19.1799 7.3601L17.2201 9.3599ZM18.9933 12.0546C19.3954 13.0999 19.6 14.2168 19.6 15.416H22.4C22.4 13.8899 22.138 12.4308 21.6067 11.0494L18.9933 12.0546ZM19.6 15.416V16.032H22.4V15.416H19.6ZM19.6 16.032C19.6 17.1041 19.4008 18.166 18.9933 19.2254L21.6067 20.2306C22.1326 18.8633 22.4 17.4612 22.4 16.032H19.6ZM18.996 19.2186C18.5996 20.2332 18.003 21.161 17.1908 22.0056L19.2092 23.9464C20.2637 22.8497 21.067 21.6121 21.604 20.2374L18.996 19.2186ZM17.2003 21.9959C16.416 22.7959 15.4144 23.4619 14.1652 23.9782L15.2348 26.5658C16.7856 25.9248 18.1173 25.0601 19.1997 23.9561L17.2003 21.9959ZM14.174 23.9746C12.9946 24.4527 11.5655 24.712 9.856 24.712V27.512C11.8425 27.512 13.6427 27.2113 15.226 26.5694L14.174 23.9746ZM9.856 24.712H6.72V27.512H9.856V24.712ZM3.472 26.112V5.392H0.672V26.112H3.472ZM2.072 6.792H7.28V3.992H2.072V6.792ZM5.88 5.392V26.112H8.68V5.392H5.88ZM7.28 24.712H2.072V27.512H7.28V24.712ZM26.861 25.888L26.2924 27.1673L26.2924 27.1673L26.861 25.888ZM24.313 24.068L25.3523 23.13L25.3523 23.13L24.313 24.068ZM22.717 21.492L21.4051 21.9808L21.4092 21.992L21.4136 22.0031L22.717 21.492ZM22.717 14.996L21.4103 14.4934L21.4076 14.5003L21.4051 14.5072L22.717 14.996ZM24.285 12.42L23.2572 11.4693L23.2507 11.4764L23.2444 11.4834L24.285 12.42ZM26.805 10.656L27.3623 11.9403L27.3724 11.9359L27.3825 11.9313L26.805 10.656ZM34.393 11.104L33.634 12.2804L33.634 12.2804L34.393 11.104ZM37.053 14.072L35.8007 14.6981L35.8046 14.7058L37.053 14.072ZM37.977 19.672V21.072H39.377V19.672H37.977ZM24.313 19.672H22.913V21.072H24.313V19.672ZM24.313 16.928V15.528H22.913V16.928H24.313ZM35.037 16.928L35.8386 18.0758L39.4866 15.528H35.037V16.928ZM33.273 18.16H31.873V20.8454L34.0746 19.3078L33.273 18.16ZM32.909 15.948L31.5933 16.4264L31.6021 16.4509L31.6119 16.4749L32.909 15.948ZM31.873 14.548L31.0637 15.6904L31.0747 15.6982L31.0857 15.7057L31.873 14.548ZM28.401 14.548L29.1347 15.7403L29.1408 15.7366L29.1469 15.7327L28.401 14.548ZM27.281 15.948L28.5698 16.4948L28.5727 16.4879L28.5755 16.481L27.281 15.948ZM27.253 20.54L25.9452 21.04L25.9504 21.0531L27.253 20.54ZM28.373 21.968L29.1496 20.8031L29.1495 20.8031L28.373 21.968ZM32.069 22.108L31.4231 20.8659L31.4126 20.8714L31.4022 20.877L32.069 22.108ZM33.049 21.128V19.728H32.1475L31.7745 20.5487L33.049 21.128ZM37.697 21.128L39.0659 21.4213L39.4288 19.728H37.697V21.128ZM36.353 23.928L35.2694 23.0415L35.2633 23.0489L35.2573 23.0565L36.353 23.928ZM33.833 25.86L33.2536 24.5855L33.2448 24.5895L33.833 25.86ZM30.333 25.16C29.1865 25.16 28.2286 24.9638 27.4296 24.6087L26.2924 27.1673C27.5093 27.7082 28.8661 27.96 30.333 27.96V25.16ZM27.4296 24.6087C26.5879 24.2346 25.9027 23.7399 25.3523 23.13L23.2736 25.0059C24.1046 25.9268 25.118 26.6454 26.2924 27.1673L27.4296 24.6087ZM25.3523 23.13C24.7737 22.4889 24.3316 21.7746 24.0203 20.9809L21.4136 22.0031C21.849 23.1134 22.4709 24.1164 23.2736 25.006L25.3523 23.13ZM24.0289 21.0032C23.732 20.2064 23.585 19.3918 23.585 18.552H20.785C20.785 19.7282 20.9926 20.8736 21.4051 21.9808L24.0289 21.0032ZM23.585 18.552V17.992H20.785V18.552H23.585ZM23.585 17.992C23.585 17.1086 23.7342 16.2758 24.0289 15.4848L21.4051 14.5072C20.9904 15.6202 20.785 16.7847 20.785 17.992H23.585ZM24.0237 15.4986C24.3378 14.6819 24.7721 13.9715 25.3256 13.3566L23.2444 11.4834C22.4539 12.3618 21.8428 13.3688 21.4103 14.4934L24.0237 15.4986ZM25.3127 13.3707C25.8636 12.7751 26.5403 12.297 27.3623 11.9403L26.2476 9.37172C25.091 9.87366 24.0877 10.5715 23.2572 11.4693L25.3127 13.3707ZM27.3825 11.9313C28.1648 11.5771 29.0834 11.384 30.165 11.384V8.584C28.7452 8.584 27.4238 8.83894 26.2275 9.38066L27.3825 11.9313ZM30.165 11.384C31.6131 11.384 32.7458 11.7074 33.634 12.2804L35.1519 9.92758C33.7255 9.00728 32.0395 8.584 30.165 8.584V11.384ZM33.634 12.2804C34.5806 12.8911 35.2969 13.6904 35.8008 14.6981L38.3052 13.4459C37.577 11.9896 36.52 10.8102 35.1519 9.92758L33.634 12.2804ZM35.8046 14.7058C36.3153 15.7117 36.577 16.8182 36.577 18.048H39.377C39.377 16.4032 39.0226 14.859 38.3013 13.4382L35.8046 14.7058ZM36.577 18.048V19.672H39.377V18.048H36.577ZM37.977 18.272H24.313V21.072H37.977V18.272ZM25.713 19.672V16.928H22.913V19.672H25.713ZM24.313 18.328H35.037V15.528H24.313V18.328ZM34.2353 15.7802L32.4713 17.0122L34.0746 19.3078L35.8386 18.0758L34.2353 15.7802ZM34.673 18.16C34.673 17.1631 34.5364 16.2343 34.206 15.4211L31.6119 16.4749C31.7669 16.8563 31.873 17.4022 31.873 18.16H34.673ZM34.2247 15.4696C33.917 14.6234 33.4076 13.8986 32.6602 13.3903L31.0857 15.7057C31.2716 15.8321 31.453 16.0406 31.5933 16.4264L34.2247 15.4696ZM32.6822 13.4056C31.9428 12.8819 31.0703 12.672 30.165 12.672V15.472C30.641 15.472 30.9071 15.5795 31.0637 15.6904L32.6822 13.4056ZM30.165 12.672C29.2638 12.672 28.4101 12.8878 27.655 13.3633L29.1469 15.7327C29.3998 15.5735 29.7221 15.472 30.165 15.472V12.672ZM27.6672 13.3557C26.882 13.8389 26.3368 14.564 25.9864 15.4149L28.5755 16.481C28.7478 16.0626 28.9493 15.8544 29.1347 15.7403L27.6672 13.3557ZM25.9922 15.4012C25.6334 16.2469 25.489 17.2336 25.489 18.3H28.289C28.289 17.4624 28.4059 16.8811 28.5698 16.4948L25.9922 15.4012ZM25.489 18.3C25.489 19.2864 25.6279 20.2098 25.9453 21.04L28.5606 20.04C28.3927 19.6009 28.289 19.031 28.289 18.3H25.489ZM25.9504 21.0531C26.2876 21.909 26.8325 22.6236 27.5964 23.1329L29.1495 20.8031C28.9054 20.6404 28.7037 20.403 28.5555 20.0269L25.9504 21.0531ZM27.5964 23.1329C28.3942 23.6648 29.3422 23.872 30.333 23.872V21.072C29.7184 21.072 29.3597 20.9432 29.1496 20.8031L27.5964 23.1329ZM30.333 23.872C31.1887 23.872 32.0185 23.7275 32.7358 23.339L31.4022 20.877C31.2235 20.9738 30.8959 21.072 30.333 21.072V23.872ZM32.7149 23.3501C33.4112 22.988 33.9865 22.4487 34.3235 21.7073L31.7745 20.5487C31.7381 20.6286 31.6601 20.7426 31.4231 20.8659L32.7149 23.3501ZM33.049 22.528H37.697V19.728H33.049V22.528ZM36.328 20.8347C36.1503 21.6641 35.7994 22.3937 35.2694 23.0415L37.4365 24.8145C38.2505 23.8196 38.7956 22.6826 39.0659 21.4213L36.328 20.8347ZM35.2573 23.0565C34.752 23.6918 34.0941 24.2034 33.2536 24.5855L34.4123 27.1345C35.6251 26.5832 36.6473 25.8069 37.4486 24.7995L35.2573 23.0565ZM33.2448 24.5895C32.4533 24.956 31.4939 25.16 30.333 25.16V27.96C31.8227 27.96 33.1966 27.6973 34.4211 27.1305L33.2448 24.5895ZM42.8509 26L41.505 26.3853L41.7954 27.4H42.8509V26ZM38.4269 10.544V9.144H36.57L37.081 10.9293L38.4269 10.544ZM43.6349 10.544L44.9878 10.1837L44.7109 9.144H43.6349V10.544ZM47.7509 26V27.4H49.5726L49.1038 25.6397L47.7509 26ZM44.4749 26H43.0749V27.4H44.4749V26ZM44.4749 21.744V20.344H43.0749V21.744H44.4749ZM49.4309 21.744H50.8309V20.344H49.4309V21.744ZM49.4309 26V27.4H50.8309V26H49.4309ZM46.2669 26L44.9015 25.6908L44.5145 27.4H46.2669V26ZM49.7669 10.544V9.144H48.6485L48.4015 10.2348L49.7669 10.544ZM54.6389 10.544L55.9983 10.8789L56.4257 9.144H54.6389V10.544ZM50.8309 26V27.4H51.9279L52.1903 26.3349L50.8309 26ZM44.1969 25.6147L39.7729 10.1587L37.081 10.9293L41.505 26.3853L44.1969 25.6147ZM38.4269 11.944H43.6349V9.144H38.4269V11.944ZM42.2821 10.9043L46.3981 26.3603L49.1038 25.6397L44.9878 10.1837L42.2821 10.9043ZM47.7509 24.6H42.8509V27.4H47.7509V24.6ZM45.8749 26V21.744H43.0749V26H45.8749ZM44.4749 23.144H49.4309V20.344H44.4749V23.144ZM48.0309 21.744V26H50.8309V21.744H48.0309ZM49.4309 24.6H44.4749V27.4H49.4309V24.6ZM47.6324 26.3092L51.1324 10.8532L48.4015 10.2348L44.9015 25.6908L47.6324 26.3092ZM49.7669 11.944H54.6389V9.144H49.7669V11.944ZM53.2796 10.2091L49.4716 25.6651L52.1903 26.3349L55.9983 10.8789L53.2796 10.2091ZM50.8309 24.6H46.2669V27.4H50.8309V24.6ZM59.8386 25.888L59.27 27.1673L59.27 27.1673L59.8386 25.888ZM57.2906 24.068L58.33 23.13L58.33 23.13L57.2906 24.068ZM55.6946 21.492L54.3827 21.9808L54.3869 21.992L54.3913 22.0031L55.6946 21.492ZM55.6946 14.996L54.3879 14.4934L54.3853 14.5003L54.3827 14.5072L55.6946 14.996ZM57.2626 12.42L56.2349 11.4693L56.2284 11.4764L56.222 11.4834L57.2626 12.42ZM59.7826 10.656L60.34 11.9403L60.3501 11.9359L60.3601 11.9313L59.7826 10.656ZM67.3706 11.104L66.6116 12.2804L66.6116 12.2804L67.3706 11.104ZM70.0306 14.072L68.7784 14.6981L68.7823 14.7058L70.0306 14.072ZM70.9546 19.672V21.072H72.3546V19.672H70.9546ZM57.2906 19.672H55.8906V21.072H57.2906V19.672ZM57.2906 16.928V15.528H55.8906V16.928H57.2906ZM68.0146 16.928L68.8162 18.0758L72.4642 15.528H68.0146V16.928ZM66.2506 18.16H64.8506V20.8454L67.0522 19.3078L66.2506 18.16ZM65.8866 15.948L64.5709 16.4264L64.5798 16.4509L64.5896 16.4749L65.8866 15.948ZM64.8506 14.548L64.0414 15.6904L64.0523 15.6982L64.0634 15.7057L64.8506 14.548ZM61.3786 14.548L62.1124 15.7403L62.1185 15.7366L62.1246 15.7327L61.3786 14.548ZM60.2586 15.948L61.5474 16.4948L61.5503 16.4879L61.5532 16.481L60.2586 15.948ZM60.2306 20.54L58.9229 21.04L58.9281 21.0531L60.2306 20.54ZM61.3506 21.968L62.1272 20.8031L62.1272 20.8031L61.3506 21.968ZM65.0466 22.108L64.4007 20.8659L64.3902 20.8714L64.3798 20.877L65.0466 22.108ZM66.0266 21.128V19.728H65.1251L64.7521 20.5487L66.0266 21.128ZM70.6746 21.128L72.0435 21.4213L72.4064 19.728H70.6746V21.128ZM69.3306 23.928L68.2471 23.0415L68.241 23.0489L68.235 23.0565L69.3306 23.928ZM66.8106 25.86L66.2313 24.5855L66.2225 24.5895L66.8106 25.86ZM63.3106 25.16C62.1642 25.16 61.2063 24.9638 60.4072 24.6087L59.27 27.1673C60.487 27.7082 61.8437 27.96 63.3106 27.96V25.16ZM60.4072 24.6087C59.5656 24.2346 58.8803 23.7399 58.33 23.13L56.2513 25.0059C57.0823 25.9268 58.0957 26.6454 59.27 27.1673L60.4072 24.6087ZM58.33 23.13C57.7514 22.4889 57.3092 21.7746 56.998 20.9809L54.3913 22.0031C54.8267 23.1134 55.4486 24.1164 56.2513 25.006L58.33 23.13ZM57.0065 21.0032C56.7097 20.2064 56.5626 19.3918 56.5626 18.552H53.7626C53.7626 19.7282 53.9703 20.8736 54.3827 21.9808L57.0065 21.0032ZM56.5626 18.552V17.992H53.7626V18.552H56.5626ZM56.5626 17.992C56.5626 17.1086 56.7118 16.2758 57.0065 15.4848L54.3827 14.5072C53.9681 15.6202 53.7626 16.7847 53.7626 17.992H56.5626ZM57.0013 15.4986C57.3154 14.6819 57.7497 13.9715 58.3032 13.3566L56.222 11.4834C55.4315 12.3618 54.8205 13.3688 54.3879 14.4934L57.0013 15.4986ZM58.2904 13.3707C58.8412 12.7751 59.5179 12.297 60.34 11.9403L59.2253 9.37172C58.0686 9.87366 57.0654 10.5715 56.2349 11.4693L58.2904 13.3707ZM60.3601 11.9313C61.1425 11.5771 62.0611 11.384 63.1426 11.384V8.584C61.7228 8.584 60.4014 8.83894 59.2051 9.38066L60.3601 11.9313ZM63.1426 11.384C64.5908 11.384 65.7235 11.7074 66.6116 12.2804L68.1296 9.92758C66.7031 9.00728 65.0171 8.584 63.1426 8.584V11.384ZM66.6116 12.2804C67.5582 12.8911 68.2746 13.6904 68.7784 14.6981L71.2828 13.4459C70.5547 11.9896 69.4977 10.8102 68.1296 9.92758L66.6116 12.2804ZM68.7823 14.7058C69.293 15.7117 69.5546 16.8182 69.5546 18.048H72.3546C72.3546 16.4032 72.0003 14.859 71.279 13.4382L68.7823 14.7058ZM69.5546 18.048V19.672H72.3546V18.048H69.5546ZM70.9546 18.272H57.2906V21.072H70.9546V18.272ZM58.6906 19.672V16.928H55.8906V19.672H58.6906ZM57.2906 18.328H68.0146V15.528H57.2906V18.328ZM67.213 15.7802L65.449 17.0122L67.0522 19.3078L68.8162 18.0758L67.213 15.7802ZM67.6506 18.16C67.6506 17.1631 67.5141 16.2343 67.1837 15.4211L64.5896 16.4749C64.7445 16.8563 64.8506 17.4022 64.8506 18.16H67.6506ZM67.2023 15.4696C66.8946 14.6234 66.3853 13.8986 65.6379 13.3903L64.0634 15.7057C64.2493 15.8321 64.4306 16.0406 64.5709 16.4264L67.2023 15.4696ZM65.6598 13.4056C64.9205 12.8819 64.0479 12.672 63.1426 12.672V15.472C63.6187 15.472 63.8848 15.5795 64.0414 15.6904L65.6598 13.4056ZM63.1426 12.672C62.2415 12.672 61.3878 12.8878 60.6327 13.3633L62.1246 15.7327C62.3774 15.5735 62.6998 15.472 63.1426 15.472V12.672ZM60.6449 13.3557C59.8596 13.8389 59.3145 14.564 58.9641 15.4149L61.5532 16.481C61.7255 16.0626 61.9269 15.8544 62.1124 15.7403L60.6449 13.3557ZM58.9698 15.4012C58.611 16.2469 58.4666 17.2336 58.4666 18.3H61.2666C61.2666 17.4624 61.3836 16.8811 61.5474 16.4948L58.9698 15.4012ZM58.4666 18.3C58.4666 19.2864 58.6055 20.2098 58.923 21.04L61.5383 20.04C61.3704 19.6009 61.2666 19.031 61.2666 18.3H58.4666ZM58.9281 21.0531C59.2652 21.909 59.8102 22.6236 60.574 23.1329L62.1272 20.8031C61.8831 20.6404 61.6814 20.403 61.5332 20.0269L58.9281 21.0531ZM60.574 23.1329C61.3719 23.6648 62.3198 23.872 63.3106 23.872V21.072C62.6961 21.072 62.3374 20.9432 62.1272 20.8031L60.574 23.1329ZM63.3106 23.872C64.1663 23.872 64.9961 23.7275 65.7134 23.339L64.3798 20.877C64.2011 20.9738 63.8736 21.072 63.3106 21.072V23.872ZM65.6925 23.3501C66.3888 22.988 66.9641 22.4487 67.3011 21.7073L64.7521 20.5487C64.7158 20.6286 64.6378 20.7426 64.4007 20.8659L65.6925 23.3501ZM66.0266 22.528H70.6746V19.728H66.0266V22.528ZM69.3057 20.8347C69.128 21.6641 68.7771 22.3937 68.2471 23.0415L70.4142 24.8145C71.2282 23.8196 71.7733 22.6826 72.0435 21.4213L69.3057 20.8347ZM68.235 23.0565C67.7296 23.6918 67.0718 24.2034 66.2313 24.5855L67.3899 27.1345C68.6028 26.5832 69.625 25.8069 70.4263 24.7995L68.235 23.0565ZM66.2225 24.5895C65.4309 24.956 64.4715 25.16 63.3106 25.16V27.96C64.8004 27.96 66.1743 27.6973 67.3988 27.1305L66.2225 24.5895ZM73.3047 26H71.9047V27.4H73.3047V26ZM73.3047 5.56V4.16H71.9047V5.56H73.3047ZM78.4007 5.56H79.8007V4.16H78.4007V5.56ZM78.4007 26V27.4H79.8007V26H78.4007ZM71.5687 9.256H70.1687V10.656H71.5687V9.256ZM71.5687 5.56V4.16H70.1687V5.56H71.5687ZM78.4007 5.56H79.8007V4.16H78.4007V5.56ZM78.4007 9.256V10.656H79.8007V9.256H78.4007ZM74.7047 26V5.56H71.9047V26H74.7047ZM73.3047 6.96H78.4007V4.16H73.3047V6.96ZM77.0007 5.56V26H79.8007V5.56H77.0007ZM78.4007 24.6H73.3047V27.4H78.4007V24.6ZM72.9687 9.256V5.56H70.1687V9.256H72.9687ZM71.5687 6.96H78.4007V4.16H71.5687V6.96ZM77.0007 5.56V9.256H79.8007V5.56H77.0007ZM78.4007 7.856H71.5687V10.656H78.4007V7.856ZM85.6588 25.944L86.1629 24.6379L86.1629 24.6379L85.6588 25.944ZM82.9428 24.236L81.9528 25.2259L81.9591 25.2322L81.9654 25.2384L82.9428 24.236ZM81.2628 21.716L79.9594 22.2271L79.9637 22.2381L79.9682 22.249L81.2628 21.716ZM81.2908 14.856L80.0014 14.3105L79.9969 14.3211L79.9926 14.3318L81.2908 14.856ZM83.0268 12.308L82.0494 11.3056L82.0494 11.3056L83.0268 12.308ZM92.8548 10.6L92.3429 11.9031L92.3507 11.9061L92.8548 10.6ZM95.5708 12.308L94.5934 13.3104L94.5934 13.3104L95.5708 12.308ZM97.2788 14.856L95.9806 15.3802L95.9849 15.3909L95.9894 15.4015L97.2788 14.856ZM97.3068 21.716L96.0122 21.183L96.0077 21.1939L96.0034 21.2049L97.3068 21.716ZM95.6268 24.236L94.6494 23.2336L94.6431 23.2398L94.6368 23.2461L95.6268 24.236ZM92.9388 25.944L92.4347 24.6379L92.4347 24.6379L92.9388 25.944ZM91.2308 21.8L90.4737 20.6224L90.4639 20.6287L90.4542 20.6351L91.2308 21.8ZM92.4068 20.4L93.6894 20.9611L93.6925 20.954L93.6956 20.9468L92.4068 20.4ZM92.3788 16.228L91.09 16.7748L91.1001 16.7987L91.1111 16.8222L92.3788 16.228ZM87.3948 14.772L86.6087 13.6135L86.6087 13.6135L87.3948 14.772ZM86.1908 16.228L84.9163 15.6487L84.9121 15.6577L84.9082 15.6669L86.1908 16.228ZM86.1908 20.4L84.902 20.9468L84.905 20.954L84.9082 20.9611L86.1908 20.4ZM89.2988 25.16C88.0757 25.16 87.0381 24.9757 86.1629 24.6379L85.1547 27.2501C86.4075 27.7336 87.7965 27.96 89.2988 27.96V25.16ZM86.1629 24.6379C85.2589 24.289 84.519 23.8175 83.9201 23.2336L81.9654 25.2384C82.8599 26.1105 83.9307 26.7777 85.1547 27.2501L86.1629 24.6379ZM83.9327 23.2461C83.3354 22.6487 82.879 21.964 82.5573 21.1829L79.9682 22.249C80.4306 23.372 81.0941 24.3673 81.9528 25.2259L83.9327 23.2461ZM82.5661 21.2049C82.2604 20.4251 82.1028 19.5821 82.1028 18.664H79.3028C79.3028 19.9112 79.5185 21.1029 79.9594 22.2271L82.5661 21.2049ZM82.1028 18.664V17.992H79.3028V18.664H82.1028ZM82.1028 17.992C82.1028 17.039 82.2688 16.1729 82.5889 15.3802L79.9926 14.3318C79.5288 15.4804 79.3028 16.705 79.3028 17.992H82.1028ZM82.5801 15.4015C82.919 14.6005 83.3923 13.907 84.0041 13.3104L82.0494 11.3056C81.168 12.165 80.4839 13.1702 80.0014 14.3105L82.5801 15.4015ZM84.0041 13.3104C84.603 12.7265 85.3429 12.255 86.2469 11.9061L85.2387 9.29391C84.0147 9.76633 82.9439 10.4335 82.0494 11.3056L84.0041 13.3104ZM86.2469 11.9061C87.1284 11.5659 88.1397 11.384 89.2988 11.384V8.584C87.8446 8.584 86.4851 8.81282 85.2387 9.29391L86.2469 11.9061ZM89.2988 11.384C90.4799 11.384 91.4871 11.5669 92.3429 11.9031L93.3667 9.29695C92.1318 8.8118 90.7684 8.584 89.2988 8.584V11.384ZM92.3507 11.9061C93.2547 12.255 93.9946 12.7265 94.5934 13.3104L96.5481 11.3056C95.6536 10.4335 94.5829 9.76633 93.3589 9.29391L92.3507 11.9061ZM94.5934 13.3104C95.2006 13.9024 95.661 14.5888 95.9806 15.3802L98.5769 14.3318C98.1126 13.1819 97.4342 12.1696 96.5481 11.3056L94.5934 13.3104ZM95.9894 15.4015C96.3226 16.1889 96.4948 17.0475 96.4948 17.992H99.2948C99.2948 16.6965 99.0563 15.4644 98.5681 14.3105L95.9894 15.4015ZM96.4948 17.992V18.664H99.2948V17.992H96.4948ZM96.4948 18.664C96.4948 19.5734 96.331 20.4087 96.0122 21.183L98.6013 22.249C99.0665 21.1193 99.2948 19.9199 99.2948 18.664H96.4948ZM96.0034 21.2049C95.7041 21.9681 95.2567 22.6415 94.6494 23.2336L96.6041 25.2384C97.4902 24.3745 98.1628 23.3679 98.6101 22.2271L96.0034 21.2049ZM94.6368 23.2461C94.0612 23.8217 93.3362 24.29 92.4347 24.6379L93.4429 27.2501C94.6694 26.7767 95.7364 26.1063 96.6167 25.2259L94.6368 23.2461ZM92.4347 24.6379C91.5595 24.9757 90.5218 25.16 89.2988 25.16V27.96C90.801 27.96 92.1901 27.7336 93.4429 27.2501L92.4347 24.6379ZM89.2988 23.704C90.2786 23.704 91.2144 23.4935 92.0074 22.9649L90.4542 20.6351C90.2391 20.7785 89.8869 20.904 89.2988 20.904V23.704ZM91.9878 22.9776C92.7544 22.4849 93.3232 21.7981 93.6894 20.9611L91.1242 19.8389C90.9677 20.1965 90.7525 20.4431 90.4737 20.6224L91.9878 22.9776ZM93.6956 20.9468C94.0401 20.1347 94.1988 19.2544 94.1988 18.328H91.3988C91.3988 18.9323 91.2961 19.4333 91.118 19.8532L93.6956 20.9468ZM94.1988 18.328C94.1988 17.3636 94.0304 16.4529 93.6464 15.6338L91.1111 16.8222C91.2872 17.1977 91.3988 17.687 91.3988 18.328H94.1988ZM93.6676 15.6812C93.3076 14.8327 92.748 14.1286 91.9889 13.6135L90.4167 15.9305C90.7029 16.1247 90.9273 16.3913 91.09 16.7748L93.6676 15.6812ZM91.9889 13.6135C91.1946 13.0745 90.2736 12.84 89.2988 12.84V15.64C89.8173 15.64 90.1656 15.7601 90.4167 15.9305L91.9889 13.6135ZM89.2988 12.84C88.324 12.84 87.403 13.0745 86.6087 13.6135L88.1809 15.9305C88.4319 15.7601 88.7803 15.64 89.2988 15.64V12.84ZM86.6087 13.6135C85.8578 14.123 85.2949 14.8158 84.9163 15.6487L87.4653 16.8073C87.6467 16.4082 87.8864 16.1303 88.1809 15.9305L86.6087 13.6135ZM84.9082 15.6669C84.5537 16.477 84.3988 17.3756 84.3988 18.328H87.1988C87.1988 17.675 87.3052 17.1736 87.4734 16.7891L84.9082 15.6669ZM84.3988 18.328C84.3988 19.2544 84.5575 20.1347 84.902 20.9468L87.4796 19.8532C87.3014 19.4333 87.1988 18.9323 87.1988 18.328H84.3988ZM84.9082 20.9611C85.2743 21.7981 85.8431 22.4849 86.6097 22.9776L88.1238 20.6224C87.8451 20.4431 87.6299 20.1965 87.4734 19.8389L84.9082 20.9611ZM86.6097 22.9776C87.4055 23.4892 88.3274 23.704 89.2988 23.704V20.904C88.7395 20.904 88.3734 20.7828 88.1238 20.6224L86.6097 22.9776ZM100.125 31.6H98.7247V33H100.125V31.6ZM100.125 10.544V9.144H98.7247V10.544H100.125ZM104.157 10.544H105.557V9.144H104.157V10.544ZM104.157 17.208V18.608H105.557V17.208H104.157ZM103.709 17.208L102.31 17.1562L102.256 18.608H103.709V17.208ZM104.605 13.344L103.366 12.692L103.361 12.7005L103.357 12.7092L104.605 13.344ZM106.873 10.936L107.565 12.153L107.574 12.1479L107.583 12.1427L106.873 10.936ZM113.033 10.684L112.451 11.9576L112.463 11.9628L112.475 11.9679L113.033 10.684ZM115.245 12.308L114.188 13.226L114.194 13.233L114.2 13.2399L115.245 12.308ZM116.645 14.772L115.317 15.2147L115.32 15.2264L115.325 15.2379L116.645 14.772ZM116.701 21.744L118.037 22.1631L118.039 22.1557L116.701 21.744ZM115.357 24.264L116.428 25.1658L116.433 25.159L116.439 25.152L115.357 24.264ZM113.145 25.916L112.574 24.6377L112.563 24.6424L113.145 25.916ZM107.013 25.804L106.357 27.0407L106.366 27.046L106.376 27.0511L107.013 25.804ZM104.829 23.648L103.596 24.3117L103.604 24.326L103.612 24.34L104.829 23.648ZM103.989 20.008L105.074 19.1237L102.484 15.9451L102.589 20.0439L103.989 20.008ZM105.221 21.52H106.621V21.0218L106.306 20.6357L105.221 21.52ZM105.221 31.6V33H106.621V31.6H105.221ZM110.401 21.8L111.177 22.9649L111.187 22.9585L110.401 21.8ZM111.605 20.344L110.345 19.7332L110.337 19.7489L110.33 19.7647L111.605 20.344ZM111.605 16.172L110.337 16.7662L110.348 16.7904L110.361 16.8141L111.605 16.172ZM110.429 14.8L109.652 15.9649L109.667 15.975L109.683 15.9847L110.429 14.8ZM106.901 14.716L106.258 13.4725L106.249 13.4771L106.24 13.4819L106.901 14.716ZM105.613 15.948L106.802 16.6863L106.802 16.6863L105.613 15.948ZM105.641 20.736L104.482 21.5221L104.489 21.532L104.496 21.5417L105.641 20.736ZM106.985 21.912L106.342 23.1555L106.359 23.1644L106.376 23.1728L106.985 21.912ZM101.525 31.6V10.544H98.7247V31.6H101.525ZM100.125 11.944H104.157V9.144H100.125V11.944ZM102.757 10.544V17.208H105.557V10.544H102.757ZM104.157 15.808H103.709V18.608H104.157V15.808ZM105.108 17.2598C105.158 15.8983 105.424 14.8201 105.853 13.9788L103.357 12.7092C102.702 13.9959 102.371 15.4937 102.31 17.1562L105.108 17.2598ZM105.844 13.996C106.292 13.1447 106.868 12.5493 107.565 12.153L106.181 9.71899C104.974 10.4054 104.038 11.4153 103.366 12.692L105.844 13.996ZM107.583 12.1427C108.295 11.7234 109.137 11.496 110.149 11.496V8.696C108.697 8.696 107.354 9.02856 106.163 9.72929L107.583 12.1427ZM110.149 11.496C111.038 11.496 111.797 11.6589 112.451 11.9576L113.614 9.41044C112.551 8.92511 111.388 8.696 110.149 8.696V11.496ZM112.475 11.9679C113.141 12.2577 113.708 12.6737 114.188 13.226L116.302 11.39C115.549 10.5236 114.642 9.85698 113.591 9.4001L112.475 11.9679ZM114.2 13.2399C114.679 13.7768 115.054 14.428 115.317 15.2147L117.973 14.3293C117.6 13.212 117.043 12.2205 116.29 11.3761L114.2 13.2399ZM115.325 15.2379C115.601 16.0224 115.749 16.908 115.749 17.908H118.549C118.549 16.6307 118.36 15.4256 117.965 14.3061L115.325 15.2379ZM115.749 17.908V18.58H118.549V17.908H115.749ZM115.749 18.58C115.749 19.5958 115.616 20.5101 115.363 21.3323L118.039 22.1557C118.383 21.0366 118.549 19.8415 118.549 18.58H115.749ZM115.365 21.3249C115.117 22.1161 114.751 22.7947 114.274 23.376L116.439 25.152C117.157 24.2773 117.687 23.2759 118.037 22.1631L115.365 21.3249ZM114.286 23.3622C113.83 23.9041 113.265 24.3287 112.574 24.6378L113.716 27.1942C114.779 26.7193 115.689 26.0426 116.428 25.1658L114.286 23.3622ZM112.563 24.6424C111.918 24.937 111.133 25.104 110.177 25.104V27.904C111.46 27.904 112.654 27.679 113.726 27.1896L112.563 24.6424ZM110.177 25.104C109.167 25.104 108.337 24.9078 107.649 24.5569L106.376 27.0511C107.518 27.6335 108.797 27.904 110.177 27.904V25.104ZM107.669 24.5673C107.003 24.2139 106.464 23.6908 106.046 22.956L103.612 24.34C104.277 25.5092 105.193 26.4234 106.357 27.0407L107.669 24.5673ZM106.061 22.9843C105.671 22.2588 105.422 21.2763 105.388 19.9721L102.589 20.0439C102.63 21.6517 102.941 23.0959 103.596 24.3117L106.061 22.9843ZM102.903 20.8923L104.135 22.4043L106.306 20.6357L105.074 19.1237L102.903 20.8923ZM103.821 21.52V31.6H106.621V21.52H103.821ZM105.221 30.2H100.125V33H105.221V30.2ZM108.637 23.704C109.554 23.704 110.419 23.4707 111.177 22.9649L109.624 20.6351C109.375 20.8013 109.064 20.904 108.637 20.904V23.704ZM111.187 22.9585C111.938 22.449 112.501 21.7562 112.879 20.9233L110.33 19.7647C110.149 20.1638 109.909 20.4417 109.615 20.6415L111.187 22.9585ZM112.864 20.9548C113.268 20.1225 113.453 19.2088 113.453 18.244H110.653C110.653 18.8472 110.539 19.3335 110.345 19.7332L112.864 20.9548ZM113.453 18.244C113.453 17.269 113.271 16.348 112.849 15.5299L110.361 16.8141C110.536 17.1533 110.653 17.6136 110.653 18.244H113.453ZM112.872 15.5778C112.491 14.7648 111.93 14.0906 111.175 13.6153L109.683 15.9847C109.936 16.1441 110.158 16.3845 110.337 16.7662L112.872 15.5778ZM111.205 13.6351C110.44 13.1251 109.564 12.896 108.637 12.896V15.696C109.091 15.696 109.409 15.8029 109.652 15.9649L111.205 13.6351ZM108.637 12.896C107.799 12.896 107 13.0885 106.258 13.4725L107.544 15.9595C107.884 15.7835 108.242 15.696 108.637 15.696V12.896ZM106.24 13.4819C105.484 13.8866 104.879 14.4757 104.423 15.2097L106.802 16.6863C107.019 16.3376 107.272 16.1054 107.562 15.9501L106.24 13.4819ZM104.423 15.2097C103.924 16.0137 103.709 16.9346 103.709 17.908H106.509C106.509 17.3507 106.629 16.965 106.802 16.6863L104.423 15.2097ZM103.709 17.908V18.86H106.509V17.908H103.709ZM103.709 18.86C103.709 19.8243 103.947 20.7336 104.482 21.5221L106.799 19.9499C106.625 19.6931 106.509 19.3517 106.509 18.86H103.709ZM104.496 21.5417C104.979 22.2277 105.598 22.7708 106.342 23.1555L107.628 20.6685C107.289 20.4932 107.012 20.2523 106.786 19.9303L104.496 21.5417ZM106.376 23.1728C107.093 23.5189 107.851 23.704 108.637 23.704V20.904C108.303 20.904 107.959 20.8278 107.593 20.6512L106.376 23.1728ZM123.169 25.888L122.6 27.1673L122.6 27.1673L123.169 25.888ZM120.621 24.068L121.66 23.13L121.66 23.13L120.621 24.068ZM119.025 21.492L117.713 21.9808L117.717 21.992L117.722 22.0031L119.025 21.492ZM119.025 14.996L117.718 14.4934L117.716 14.5003L117.713 14.5072L119.025 14.996ZM120.593 12.42L119.565 11.4693L119.559 11.4764L119.552 11.4834L120.593 12.42ZM123.113 10.656L123.67 11.9403L123.68 11.9359L123.69 11.9313L123.113 10.656ZM130.701 11.104L129.942 12.2804L129.942 12.2804L130.701 11.104ZM133.361 14.072L132.109 14.6981L132.113 14.7058L133.361 14.072ZM134.285 19.672V21.072H135.685V19.672H134.285ZM120.621 19.672H119.221V21.072H120.621V19.672ZM120.621 16.928V15.528H119.221V16.928H120.621ZM131.345 16.928L132.147 18.0758L135.795 15.528H131.345V16.928ZM129.581 18.16H128.181V20.8454L130.383 19.3078L129.581 18.16ZM129.217 15.948L127.901 16.4264L127.91 16.4509L127.92 16.4749L129.217 15.948ZM128.181 14.548L127.372 15.6904L127.383 15.6982L127.394 15.7057L128.181 14.548ZM124.709 14.548L125.443 15.7403L125.449 15.7366L125.455 15.7327L124.709 14.548ZM123.589 15.948L124.878 16.4948L124.881 16.4879L124.883 16.481L123.589 15.948ZM123.561 20.54L122.253 21.04L122.258 21.0531L123.561 20.54ZM124.681 21.968L125.458 20.8031L125.458 20.8031L124.681 21.968ZM128.377 22.108L127.731 20.8659L127.721 20.8714L127.71 20.877L128.377 22.108ZM129.357 21.128V19.728H128.455L128.082 20.5487L129.357 21.128ZM134.005 21.128L135.374 21.4213L135.737 19.728H134.005V21.128ZM132.661 23.928L131.577 23.0415L131.571 23.0489L131.565 23.0565L132.661 23.928ZM130.141 25.86L129.562 24.5855L129.553 24.5895L130.141 25.86ZM126.641 25.16C125.495 25.16 124.537 24.9638 123.738 24.6087L122.6 27.1673C123.817 27.7082 125.174 27.96 126.641 27.96V25.16ZM123.738 24.6087C122.896 24.2346 122.211 23.7399 121.66 23.13L119.582 25.0059C120.413 25.9268 121.426 26.6454 122.6 27.1673L123.738 24.6087ZM121.66 23.13C121.082 22.4889 120.64 21.7746 120.328 20.9809L117.722 22.0031C118.157 23.1134 118.779 24.1164 119.582 25.006L121.66 23.13ZM120.337 21.0032C120.04 20.2064 119.893 19.3918 119.893 18.552H117.093C117.093 19.7282 117.301 20.8736 117.713 21.9808L120.337 21.0032ZM119.893 18.552V17.992H117.093V18.552H119.893ZM119.893 17.992C119.893 17.1086 120.042 16.2758 120.337 15.4848L117.713 14.5072C117.298 15.6202 117.093 16.7847 117.093 17.992H119.893ZM120.332 15.4986C120.646 14.6819 121.08 13.9715 121.634 13.3566L119.552 11.4834C118.762 12.3618 118.151 13.3688 117.718 14.4934L120.332 15.4986ZM121.621 13.3707C122.172 12.7751 122.848 12.297 123.67 11.9403L122.556 9.37172C121.399 9.87366 120.396 10.5715 119.565 11.4693L121.621 13.3707ZM123.69 11.9313C124.473 11.5771 125.391 11.384 126.473 11.384V8.584C125.053 8.584 123.732 8.83894 122.535 9.38066L123.69 11.9313ZM126.473 11.384C127.921 11.384 129.054 11.7074 129.942 12.2804L131.46 9.92758C130.033 9.00728 128.347 8.584 126.473 8.584V11.384ZM129.942 12.2804C130.889 12.8911 131.605 13.6904 132.109 14.6981L134.613 13.4459C133.885 11.9896 132.828 10.8102 131.46 9.92758L129.942 12.2804ZM132.113 14.7058C132.623 15.7117 132.885 16.8182 132.885 18.048H135.685C135.685 16.4032 135.331 14.859 134.609 13.4382L132.113 14.7058ZM132.885 18.048V19.672H135.685V18.048H132.885ZM134.285 18.272H120.621V21.072H134.285V18.272ZM122.021 19.672V16.928H119.221V19.672H122.021ZM120.621 18.328H131.345V15.528H120.621V18.328ZM130.543 15.7802L128.779 17.0122L130.383 19.3078L132.147 18.0758L130.543 15.7802ZM130.981 18.16C130.981 17.1631 130.844 16.2343 130.514 15.4211L127.92 16.4749C128.075 16.8563 128.181 17.4022 128.181 18.16H130.981ZM130.533 15.4696C130.225 14.6234 129.716 13.8986 128.968 13.3903L127.394 15.7057C127.58 15.8321 127.761 16.0406 127.901 16.4264L130.533 15.4696ZM128.99 13.4056C128.251 12.8819 127.378 12.672 126.473 12.672V15.472C126.949 15.472 127.215 15.5795 127.372 15.6904L128.99 13.4056ZM126.473 12.672C125.572 12.672 124.718 12.8878 123.963 13.3633L125.455 15.7327C125.708 15.5735 126.03 15.472 126.473 15.472V12.672ZM123.975 13.3557C123.19 13.8389 122.645 14.564 122.294 15.4149L124.883 16.481C125.056 16.0626 125.257 15.8544 125.443 15.7403L123.975 13.3557ZM122.3 15.4012C121.941 16.2469 121.797 17.2336 121.797 18.3H124.597C124.597 17.4624 124.714 16.8811 124.878 16.4948L122.3 15.4012ZM121.797 18.3C121.797 19.2864 121.936 20.2098 122.253 21.04L124.869 20.04C124.701 19.6009 124.597 19.031 124.597 18.3H121.797ZM122.258 21.0531C122.596 21.909 123.14 22.6236 123.904 23.1329L125.458 20.8031C125.213 20.6404 125.012 20.403 124.864 20.0269L122.258 21.0531ZM123.904 23.1329C124.702 23.6648 125.65 23.872 126.641 23.872V21.072C126.026 21.072 125.668 20.9432 125.458 20.8031L123.904 23.1329ZM126.641 23.872C127.497 23.872 128.326 23.7275 129.044 23.339L127.71 20.877C127.531 20.9738 127.204 21.072 126.641 21.072V23.872ZM129.023 23.3501C129.719 22.988 130.294 22.4487 130.631 21.7073L128.082 20.5487C128.046 20.6286 127.968 20.7426 127.731 20.8659L129.023 23.3501ZM129.357 22.528H134.005V19.728H129.357V22.528ZM132.636 20.8347C132.458 21.6641 132.107 22.3937 131.577 23.0415L133.744 24.8145C134.558 23.8196 135.104 22.6826 135.374 21.4213L132.636 20.8347ZM131.565 23.0565C131.06 23.6918 130.402 24.2034 129.562 24.5855L130.72 27.1345C131.933 26.5832 132.955 25.8069 133.757 24.7995L131.565 23.0565ZM129.553 24.5895C128.761 24.956 127.802 25.16 126.641 25.16V27.96C128.131 27.96 129.505 27.6973 130.729 27.1305L129.553 24.5895ZM136.411 26H135.011V27.4H136.411V26ZM136.411 10.544V9.144H135.011V10.544H136.411ZM140.443 10.544H141.843V9.144H140.443V10.544ZM140.443 17.264V18.664H141.843V17.264H140.443ZM140.387 17.264H138.987V18.664H140.387V17.264ZM141.731 12.168L140.607 11.3334L140.599 11.3446L141.731 12.168ZM146.267 10.32H147.667V8.92H146.267V10.32ZM146.267 14.688V16.088H147.667V14.688H146.267ZM142.431 15.612L141.456 14.6074L141.448 14.6147L141.441 14.622L142.431 15.612ZM141.507 26V27.4H142.907V26H141.507ZM137.811 26V10.544H135.011V26H137.811ZM136.411 11.944H140.443V9.144H136.411V11.944ZM139.043 10.544V17.264H141.843V10.544H139.043ZM140.443 15.864H140.387V18.664H140.443V15.864ZM141.787 17.264C141.787 15.274 142.201 13.9023 142.863 12.9914L140.599 11.3446C139.469 12.8977 138.987 14.9233 138.987 17.264H141.787ZM142.855 13.0025C143.475 12.168 144.341 11.72 145.651 11.72V8.92C143.564 8.92 141.817 9.70395 140.607 11.3335L142.855 13.0025ZM145.651 11.72H146.267V8.92H145.651V11.72ZM144.867 10.32V14.688H147.667V10.32H144.867ZM146.267 13.288H145.091V16.088H146.267V13.288ZM145.091 13.288C143.697 13.288 142.421 13.6709 141.456 14.6074L143.406 16.6166C143.711 16.3211 144.207 16.088 145.091 16.088V13.288ZM141.441 14.622C140.485 15.5781 140.107 16.8695 140.107 18.272H142.907C142.907 17.3598 143.145 16.8779 143.421 16.6019L141.441 14.622ZM140.107 18.272V26H142.907V18.272H140.107ZM141.507 24.6H136.411V27.4H141.507V24.6Z" fill="black" mask="url(#path-1-outside-1_410_1323)"/>
</g>
<defs>
<filter id="filter0_d_410_1323" x="-1.92798" y="5.392" width="152.195" height="34.208" filterUnits="userSpaceOnUse" color-interpolation-filters="sRGB">
<feFlood flood-opacity="0" result="BackgroundImageFix"/>
<feColorMatrix in="SourceAlpha" type="matrix" values="0 0 0 0 0 0 0 0 0 0 0 0 0 0 0 0 0 0 127 0" result="hardAlpha"/>
<feOffset dy="4"/>
<feGaussianBlur stdDeviation="2"/>
<feComposite in2="hardAlpha" operator="out"/>
<feColorMatrix type="matrix" values="0 0 0 0 0 0 0 0 0 0 0 0 0 0 0 0 0 0 0.25 0"/>
<feBlend mode="normal" in2="BackgroundImageFix" result="effect1_dropShadow_410_1323"/>
<feBlend mode="normal" in="SourceGraphic" in2="effect1_dropShadow_410_1323" result="shape"/>
</filter>
</defs>
</svg>
