<svg width="38" height="56" viewBox="0 0 38 56" fill="none" xmlns="http://www.w3.org/2000/svg">
<g clip-path="url(#clip0_196_522)">
<path d="M17.6667 27.9998C17.6667 25.5245 18.6501 23.1505 20.4004 21.4002C22.1508 19.6498 24.5247 18.6665 27.0001 18.6665C29.4754 18.6665 31.8494 19.6498 33.5997 21.4002C35.3501 23.1505 36.3334 25.5245 36.3334 27.9998C36.3334 30.4752 35.3501 32.8492 33.5997 34.5995C31.8494 36.3498 29.4754 37.3332 27.0001 37.3332C24.5247 37.3332 22.1508 36.3498 20.4004 34.5995C18.6501 32.8492 17.6667 30.4752 17.6667 27.9998Z" fill="black"/>
<path d="M0.5 46.6666C0.5 44.3238 1.43065 42.077 3.08722 40.4205C4.74379 38.7639 6.99059 37.8333 9.33333 37.8333H18.1667V46.6666C18.1667 49.0093 17.236 51.2561 15.5794 52.9127C13.9229 54.5693 11.6761 55.4999 9.33333 55.4999C6.99059 55.4999 4.74379 54.5693 3.08722 52.9127C1.43065 51.2561 0.5 49.0093 0.5 46.6666Z" fill="black" stroke="black"/>
<path d="M26.0001 18.1667H17.1667V0.5H26.0001C28.3428 0.5 30.5896 1.43065 32.2462 3.08722C33.9028 4.74379 34.8334 6.99059 34.8334 9.33333C34.8334 11.6761 33.9028 13.9229 32.2462 15.5794C30.5896 17.236 28.3428 18.1667 26.0001 18.1667Z" stroke="black"/>
<path d="M0 9.33333C0 11.8087 0.98333 14.1827 2.73367 15.933C4.48401 17.6833 6.85798 18.6667 9.33333 18.6667H18.6667V0H9.33333C6.85798 0 4.48401 0.98333 2.73367 2.73367C0.98333 4.48401 0 6.85798 0 9.33333Z" fill="black"/>
<path d="M3.08722 34.2462C1.43065 32.5896 0.5 30.3428 0.5 28.0001C0.5 25.6573 1.43065 23.4105 3.08722 21.754C4.74379 20.0974 6.99059 19.1667 9.33333 19.1667H18.1667V36.8334H9.33333C6.99059 36.8334 4.74379 35.9028 3.08722 34.2462Z" stroke="black"/>
</g>
<defs>
<clipPath id="clip0_196_522">
<rect width="37.3333" height="56" fill="white"/>
</clipPath>
</defs>
</svg>
